<svg xmlns="http://www.w3.org/2000/svg" xmlns:xlink="http://www.w3.org/1999/xlink" width="500" zoomAndPan="magnify" viewBox="0 0 375 374.999991" height="500" preserveAspectRatio="xMidYMid meet" version="1.0"><defs><clipPath id="7c08fb6046"><path d="M 14.871094 62.894531 L 359.871094 62.894531 L 359.871094 311.894531 L 14.871094 311.894531 Z M 14.871094 62.894531 " clip-rule="nonzero"/></clipPath><clipPath id="e1ec05620c"><path d="M 14.871094 62.894531 L 359.871094 62.894531 L 359.871094 311.894531 L 14.871094 311.894531 Z M 14.871094 62.894531 " clip-rule="nonzero"/></clipPath></defs><g clip-path="url(#7c08fb6046)"><path fill="#00247d" d="M 14.96875 101.765625 L 14.96875 139.507812 L 68.875 139.507812 Z M 59.640625 311.894531 L 139.480469 311.894531 L 139.480469 255.992188 Z M 235.261719 256.003906 L 235.261719 311.894531 L 315.09375 311.894531 Z M 14.96875 235.277344 L 14.96875 273.019531 L 68.894531 235.277344 Z M 315.109375 62.894531 L 235.261719 62.894531 L 235.261719 118.792969 Z M 359.773438 273.03125 L 359.773438 235.277344 L 305.839844 235.277344 Z M 359.773438 139.507812 L 359.773438 101.765625 L 305.859375 139.507812 Z M 139.480469 62.894531 L 59.640625 62.894531 L 139.480469 118.792969 Z M 139.480469 62.894531 " fill-opacity="1" fill-rule="nonzero"/></g><path fill="#cf1b2b" d="M 255.757812 235.277344 L 348.777344 300.410156 C 353.289062 295.824219 356.515625 290.046875 358.257812 283.660156 L 289.15625 235.277344 Z M 139.480469 235.277344 L 118.976562 235.277344 L 25.964844 300.402344 C 30.953125 305.476562 37.351562 309.105469 44.527344 310.792969 L 139.480469 244.308594 Z M 235.261719 139.507812 L 255.765625 139.507812 L 348.777344 74.386719 C 343.789062 69.308594 337.398438 65.679688 330.226562 63.996094 L 235.261719 130.476562 Z M 118.976562 139.507812 L 25.964844 74.386719 C 21.453125 78.984375 18.226562 84.746094 16.472656 91.136719 L 85.578125 139.507812 Z M 118.976562 139.507812 " fill-opacity="1" fill-rule="nonzero"/><g clip-path="url(#e1ec05620c)"><path fill="#eeeeee" d="M 359.773438 216.125 L 216.105469 216.125 L 216.105469 311.894531 L 235.261719 311.894531 L 235.261719 256.003906 L 315.09375 311.894531 L 321.460938 311.894531 C 332.160156 311.894531 341.824219 307.476562 348.777344 300.410156 L 255.757812 235.277344 L 289.15625 235.277344 L 358.257812 283.660156 C 359.148438 280.433594 359.773438 277.089844 359.773438 273.585938 L 359.773438 273.03125 L 305.839844 235.277344 L 359.773438 235.277344 Z M 14.96875 216.125 L 14.96875 235.277344 L 68.894531 235.277344 L 14.96875 273.019531 L 14.96875 273.585938 C 14.96875 284.035156 19.175781 293.488281 25.964844 300.402344 L 118.976562 235.277344 L 139.480469 235.277344 L 139.480469 244.308594 L 44.527344 310.78125 C 47.34375 311.453125 50.253906 311.894531 53.28125 311.894531 L 59.640625 311.894531 L 139.480469 255.992188 L 139.480469 311.894531 L 158.636719 311.894531 L 158.636719 216.125 Z M 359.773438 101.199219 C 359.773438 90.753906 355.566406 81.300781 348.777344 74.386719 L 255.765625 139.507812 L 235.261719 139.507812 L 235.261719 130.476562 L 330.226562 63.996094 C 327.398438 63.332031 324.488281 62.894531 321.460938 62.894531 L 315.109375 62.894531 L 235.261719 118.792969 L 235.261719 62.894531 L 216.105469 62.894531 L 216.105469 158.664062 L 359.773438 158.664062 L 359.773438 139.507812 L 305.859375 139.507812 L 359.773438 101.765625 Z M 139.480469 62.894531 L 139.480469 118.792969 L 59.640625 62.894531 L 53.28125 62.894531 C 42.574219 62.894531 32.917969 67.308594 25.964844 74.386719 L 118.976562 139.507812 L 85.578125 139.507812 L 16.472656 91.136719 C 15.589844 94.363281 14.96875 97.695312 14.96875 101.199219 L 14.96875 101.765625 L 68.875 139.507812 L 14.96875 139.507812 L 14.96875 158.664062 L 158.636719 158.664062 L 158.636719 62.894531 Z M 139.480469 62.894531 " fill-opacity="1" fill-rule="nonzero"/><path fill="#cf1b2b" d="M 216.105469 158.664062 L 216.105469 62.894531 L 158.636719 62.894531 L 158.636719 158.664062 L 14.96875 158.664062 L 14.96875 216.125 L 158.636719 216.125 L 158.636719 311.894531 L 216.105469 311.894531 L 216.105469 216.125 L 359.773438 216.125 L 359.773438 158.664062 Z M 216.105469 158.664062 " fill-opacity="1" fill-rule="nonzero"/></g></svg>