<svg width="32" height="32" viewBox="0 0 32 32" fill="none" xmlns="http://www.w3.org/2000/svg">
<path d="M0 4C0 1.79086 1.79086 0 4 0H28C30.2091 0 32 1.79086 32 4V28C32 30.2091 30.2091 32 28 32H4C1.79086 32 0 30.2091 0 28V4Z" fill="white" fill-opacity="0.4"/>
<path d="M13.1956 16L20.7335 24.291C20.9041 24.4787 21 24.7333 21 24.9989C21 25.2644 20.9041 25.519 20.7335 25.7068C20.5628 25.8945 20.3314 26 20.09 26C19.8487 26 19.6172 25.8945 19.4466 25.7068L11.267 16.7079C11.1824 16.615 11.1152 16.5047 11.0694 16.3832C11.0236 16.2617 11 16.1315 11 16C11 15.8685 11.0236 15.7383 11.0694 15.6168C11.1152 15.4953 11.1824 15.385 11.267 15.2921L19.4466 6.29323C19.6172 6.10548 19.8487 6 20.09 6C20.3314 6 20.5628 6.10548 20.7335 6.29323C20.9041 6.48098 21 6.73562 21 7.00114C21 7.26665 20.9041 7.5213 20.7335 7.70905L13.1956 16Z" fill="#321F00"/>
</svg>
