<svg width="24" height="24" viewBox="0 0 24 24" fill="none" xmlns="http://www.w3.org/2000/svg">
<path fill-rule="evenodd" clip-rule="evenodd" d="M23.0371 10.127V22.084H20.2422V20.2363H3.75781V22.084H0.962891V10.127H0V8.28906H2.35156L3.66211 4.21094C4.04883 3.00781 4.69336 1.91602 5.95508 1.91602H18.5312C19.793 1.91602 20.5195 2.98633 20.8242 4.20898L21.8379 8.28711H23.998V10.125H23.0371V10.127ZM7.81445 16.5469H16.0703V18.4941H7.81445V16.5469ZM1.89844 12.0117C4.00195 12.0781 5.28906 12.959 5.61914 14.7969H1.89844V12.0117ZM21.8359 12.0117C19.7324 12.0781 18.4453 12.959 18.1152 14.7969H21.8359V12.0117ZM3.35547 8.28711H20.6445L19.9043 4.86719C19.7012 3.92969 19.1172 3.11914 18.1562 3.11914H6.19922C5.23828 3.11914 4.74609 3.95117 4.45117 4.86719L3.35547 8.28711Z" fill="#1C274C"/>
</svg>
