<svg width="24" height="24" viewBox="0 0 24 24" fill="none" xmlns="http://www.w3.org/2000/svg">
<g clip-path="url(#clip0_266_2306)">
<path fill-rule="evenodd" clip-rule="evenodd" d="M1.98645 9.69922C-0.158085 8.60938 0.0880083 7.39453 2.24231 7.52148L2.72473 8.42578L3.71887 5.33398C4.10949 4.11719 4.75988 3.01367 6.03527 3.01367H18.7501C20.0255 3.01367 20.7599 4.0957 21.0685 5.33203L21.8146 8.33008L22.2443 7.52148C24.4591 7.39258 24.6564 8.67969 22.3126 9.79102L22.6935 10.375C24.2345 11.959 24.09 14.7598 23.8497 18.6719V20.2617C23.8497 20.6602 23.5236 20.9863 23.1251 20.9863H20.0333C19.6349 20.9863 19.3087 20.6602 19.3087 20.2617V19.375H4.69543V20.2617C4.69543 20.6602 4.36926 20.9863 3.97082 20.9863H0.879024C0.480586 20.9863 0.154415 20.6602 0.154415 20.2617V18.2871C0.154415 18.248 0.158321 18.2109 0.162227 18.1738C-0.0721479 15.1719 -0.402226 11.2461 1.98645 9.69922ZM5.93371 14.4785L3.18762 14.1328C2.53918 14.0605 2.36535 14.334 2.58606 14.8926L2.88293 15.6133C2.97863 15.7988 3.10559 15.9336 3.25402 16.0273C3.42785 16.1348 3.63684 16.1875 3.86926 16.1973L6.31848 16.2168C6.91027 16.2148 7.16613 15.9785 6.98059 15.4355C6.82824 14.9258 6.48059 14.6055 5.93371 14.4785ZM10.6212 13.3242H13.4337C13.5997 13.3242 13.7364 13.4609 13.7364 13.627C13.7364 13.793 13.5997 13.9297 13.4337 13.9297H10.6212C10.4552 13.9297 10.3185 13.793 10.3185 13.627C10.3165 13.4609 10.4532 13.3242 10.6212 13.3242ZM17.5704 17.3008H20.3829C20.5489 17.3008 20.6857 17.4375 20.6857 17.6035C20.6857 17.7695 20.5489 17.9062 20.3829 17.9062H17.5704C17.4044 17.9062 17.2677 17.7695 17.2677 17.6035C17.2677 17.4375 17.4025 17.3008 17.5704 17.3008ZM18.0665 14.4785L20.8126 14.1328C21.4611 14.0605 21.6349 14.334 21.4142 14.8926L21.1173 15.6133C21.0216 15.7988 20.8947 15.9336 20.7462 16.0273C20.5724 16.1348 20.3634 16.1875 20.131 16.1973L17.6818 16.2168C17.09 16.2148 16.8341 15.9785 17.0196 15.4355C17.172 14.9258 17.5196 14.6055 18.0665 14.4785ZM3.59582 17.3008H6.40832C6.57434 17.3008 6.71106 17.4375 6.71106 17.6035C6.71106 17.7695 6.57434 17.9062 6.40832 17.9062H3.59582C3.42981 17.9062 3.29309 17.7695 3.29309 17.6035C3.29309 17.4375 3.42981 17.3008 3.59582 17.3008ZM3.75598 9.10742H20.713L19.965 5.99805C19.7599 5.05078 19.17 4.23047 18.1974 4.23047H6.45715C5.48645 4.23047 4.9884 5.07227 4.68957 5.99805L3.75598 9.10742Z" fill="#1C274C"/>
</g>
<defs>
<clipPath id="clip0_266_2306">
<rect width="24" height="24" fill="white"/>
</clipPath>
</defs>
</svg>
