<svg width="24" height="24" viewBox="0 0 24 24" fill="none" xmlns="http://www.w3.org/2000/svg">
<path d="M1.25235 20V22C1.25235 22.5523 1.70005 23 2.25235 23H16.1559C17.0897 23 17.8992 22.3538 18.1062 21.4432L22.4747 2.22162C22.6169 1.59586 22.1413 1 21.4996 1H18.0444C17.5803 1 17.1772 1.31925 17.071 1.77096L14.7036 11.8323C13.8533 15.446 10.6286 18 6.91623 18H3.25235C2.14775 18 1.25235 18.8954 1.25235 20Z" stroke="#1C274C" stroke-linecap="round" stroke-linejoin="round"/>
<path d="M16.7852 3H14.7525C14.2002 3 13.7524 3.44772 13.7524 4V4C13.7524 5.25903 14.3452 6.44458 15.3524 7.2L15.7524 7.5" stroke="#1C274C" stroke-linecap="round" stroke-linejoin="round"/>
<path d="M10.252 14.375H14.127H16.252" stroke="#1C274C" stroke-linecap="round" stroke-linejoin="round"/>
</svg>
