<svg width="20" height="20" viewBox="0 0 20 20" fill="none" xmlns="http://www.w3.org/2000/svg">
<path d="M1.66699 10.0007C1.66699 6.85795 1.66699 5.28661 2.6433 4.31029C3.61962 3.33398 5.19096 3.33398 8.33366 3.33398H11.667C14.8097 3.33398 16.3811 3.33398 17.3573 4.31029C18.3337 5.28661 18.3337 6.85795 18.3337 10.0007V11.6673C18.3337 14.81 18.3337 16.3814 17.3573 17.3577C16.3811 18.334 14.8097 18.334 11.667 18.334H8.33366C5.19096 18.334 3.61962 18.334 2.6433 17.3577C1.66699 16.3814 1.66699 14.81 1.66699 11.6673V10.0007Z" stroke="#1C274C"/>
<path d="M5.83301 3.33398V2.08398" stroke="#1C274C" stroke-width="1.5" stroke-linecap="round"/>
<path d="M14.167 3.33398V2.08398" stroke="#1C274C" stroke-width="1.5" stroke-linecap="round"/>
<path d="M13.75 15C14.4404 15 15 14.4404 15 13.75C15 13.0596 14.4404 12.5 13.75 12.5C13.0596 12.5 12.5 13.0596 12.5 13.75C12.5 14.4404 13.0596 15 13.75 15Z" stroke="#1C274C"/>
<path d="M2.08301 7.5H17.9163" stroke="#1C274C" stroke-linecap="round"/>
</svg>
