<svg width="20" height="16" viewBox="0 0 20 16" fill="none" xmlns="http://www.w3.org/2000/svg">
<path id="diamond-[#767]" fill-rule="evenodd" clip-rule="evenodd" d="M10.724 13.2461C10.328 13.6969 9.62403 13.7447 9.22403 13.2979L3.03395 6.95016H16.7831L10.724 13.2461ZM4.63597 2.45059C4.81897 2.16165 5.13897 1.98574 5.48198 1.98574H14.5131C14.8501 1.98574 15.1641 2.1535 15.3491 2.4335L17.5111 4.96429H2.58894L4.63597 2.45059ZM19.6762 4.39153L16.7761 0.813853C16.4071 0.250876 15.7771 -0.00012207 15.1001 -0.00012207H4.92997C4.24197 -0.00012207 3.60196 0.262828 3.23595 0.841685L0.305916 4.64691C-0.16709 5.39556 -0.085089 6.34164 0.506918 7.00192L8.49701 15.3384C9.29703 16.2301 10.704 16.218 11.4961 15.3184L19.5062 6.78463C20.0952 6.11541 20.1642 5.13621 19.6762 4.39153Z" fill="white"/>
</svg>
