<svg xmlns="http://www.w3.org/2000/svg" xmlns:xlink="http://www.w3.org/1999/xlink" width="1080" zoomAndPan="magnify" viewBox="0 0 810 809.999993" height="1080" preserveAspectRatio="xMidYMid meet" version="1.0"><path fill="#000000" d="M 701 405 C 701 241.519531 568.472656 108.996094 404.996094 108.996094 C 241.515625 108.996094 108.992188 241.519531 108.992188 405 C 108.992188 552.742188 217.234375 675.203125 358.742188 697.40625 L 358.742188 490.5625 L 283.585938 490.5625 L 283.585938 405 L 358.742188 405 L 358.742188 339.785156 C 358.742188 265.601562 402.933594 224.621094 470.550781 224.621094 C 502.933594 224.621094 536.808594 230.402344 536.808594 230.402344 L 536.808594 303.25 L 499.484375 303.25 C 462.710938 303.25 451.246094 326.066406 451.246094 349.472656 L 451.246094 405 L 533.339844 405 L 520.214844 490.5625 L 451.246094 490.5625 L 451.246094 697.40625 C 592.753906 675.203125 701 552.742188 701 405 " fill-opacity="1" fill-rule="nonzero"/><path fill="#ffffff" d="M 520.214844 490.5625 L 533.339844 405 L 451.246094 405 L 451.246094 349.472656 C 451.246094 326.066406 462.710938 303.25 499.484375 303.25 L 536.808594 303.25 L 536.808594 230.402344 C 536.808594 230.402344 502.933594 224.621094 470.550781 224.621094 C 402.933594 224.621094 358.742188 265.601562 358.742188 339.785156 L 358.742188 405 L 283.585938 405 L 283.585938 490.5625 L 358.742188 490.5625 L 358.742188 697.40625 C 374.066406 699.808594 389.484375 701.007812 404.996094 701.003906 C 420.730469 701.003906 436.175781 699.773438 451.246094 697.40625 L 451.246094 490.5625 L 520.214844 490.5625 " fill-opacity="1" fill-rule="nonzero"/></svg>