<svg xmlns="http://www.w3.org/2000/svg" xmlns:xlink="http://www.w3.org/1999/xlink" width="500" zoomAndPan="magnify" viewBox="0 0 375 374.999991" height="500" preserveAspectRatio="xMidYMid meet" version="1.0"><defs><clipPath id="0955d3bff2"><path d="M 245 63.089844 L 360.144531 63.089844 L 360.144531 312.089844 L 245 312.089844 Z M 245 63.089844 " clip-rule="nonzero"/></clipPath><clipPath id="c16aee5d38"><path d="M 15.144531 63.089844 L 131 63.089844 L 131 312.089844 L 15.144531 312.089844 Z M 15.144531 63.089844 " clip-rule="nonzero"/></clipPath><clipPath id="f3b4f4a193"><path d="M 130 63.089844 L 246 63.089844 L 246 312.089844 L 130 312.089844 Z M 130 63.089844 " clip-rule="nonzero"/></clipPath></defs><g clip-path="url(#0955d3bff2)"><path fill="#ed2939" d="M 360.046875 273.78125 C 360.046875 294.9375 342.890625 312.089844 321.734375 312.089844 L 245.113281 312.089844 L 245.113281 63.089844 L 321.734375 63.089844 C 342.890625 63.089844 360.046875 80.242188 360.046875 101.398438 Z M 360.046875 273.78125 " fill-opacity="1" fill-rule="nonzero"/></g><g clip-path="url(#c16aee5d38)"><path fill="#002495" d="M 53.554688 63.089844 C 32.398438 63.089844 15.242188 80.242188 15.242188 101.398438 L 15.242188 273.78125 C 15.242188 294.9375 32.398438 312.089844 53.554688 312.089844 L 130.175781 312.089844 L 130.175781 63.089844 Z M 53.554688 63.089844 " fill-opacity="1" fill-rule="nonzero"/></g><g clip-path="url(#f3b4f4a193)"><path fill="#eeeeee" d="M 130.175781 63.089844 L 245.113281 63.089844 L 245.113281 312.089844 L 130.175781 312.089844 Z M 130.175781 63.089844 " fill-opacity="1" fill-rule="nonzero"/></g></svg>