<svg width="24" height="24" viewBox="0 0 24 24" fill="none" xmlns="http://www.w3.org/2000/svg">
<path d="M4.28808 12.5405C4.91967 11.9573 5.72818 11.5487 6.61597 11.364L17.0296 9.13066L17.3558 7.44569C17.391 7.22525 17.4998 7.01919 17.6681 6.85397C17.8364 6.68875 18.0566 6.57191 18.3004 6.51845L20.7183 6L20.9994 11.7229C21.0075 11.9637 20.932 12.2008 20.7831 12.4023C20.6343 12.6037 20.4193 12.7599 20.1672 12.8496L15.7813 14.3052L19.29 16.8875L15.5564 17.5854C15.3204 17.6256 15.076 17.5977 14.8592 17.5057L11.3505 16.0799C11.2182 16.0262 11.0743 15.9983 10.9288 15.9983C10.7832 15.9983 10.6394 16.0262 10.507 16.0799L4.88411 17.9344C4.75798 17.9794 4.62299 18.0017 4.48704 17.9999C4.35108 17.9981 4.21689 17.9724 4.0923 17.9241C3.96771 17.8758 3.85522 17.806 3.76139 17.7188C3.66757 17.6315 3.5943 17.5286 3.54586 17.416L3.27596 16.8078C2.98245 16.0831 2.92166 15.3005 3.10036 14.5471C3.27907 13.7936 3.69025 13.0989 4.28808 12.5405Z" stroke="#1C274C" stroke-linecap="round" stroke-linejoin="round"/>
</svg>
