<svg width="32" height="32" viewBox="0 0 32 32" fill="none" xmlns="http://www.w3.org/2000/svg">
<path d="M6 11.7333L9.0243 14.1527C9.22398 14.3125 9.47568 14.4 9.73561 14.4H22.2643C22.5243 14.4 22.776 14.3125 22.9757 14.1527L26 11.7333M9.88889 18.1333H9.9M22.1111 18.1333H22.1222M11.7341 8H20.266C21.0634 8 21.7998 8.41021 22.1953 9.0749L25.4144 14.4829C25.7981 15.1276 26 15.8572 26 16.5998V22.9333C26 23.5225 25.5026 24 24.8889 24H23.7778C23.1641 24 22.6667 23.5225 22.6667 22.9333V21.8667H9.33333V22.9333C9.33333 23.5225 8.83587 24 8.22222 24H7.11111C6.49747 24 6 23.5225 6 22.9333V16.5998C6 15.8572 6.20184 15.1276 6.58559 14.4829L9.80462 9.0749C10.2003 8.41021 10.9366 8 11.7341 8ZM10.4444 18.1333C10.4444 18.4278 10.1957 18.6667 9.88889 18.6667C9.58207 18.6667 9.33333 18.4278 9.33333 18.1333C9.33333 17.8388 9.58207 17.6 9.88889 17.6C10.1957 17.6 10.4444 17.8388 10.4444 18.1333ZM22.6667 18.1333C22.6667 18.4278 22.4179 18.6667 22.1111 18.6667C21.8043 18.6667 21.5556 18.4278 21.5556 18.1333C21.5556 17.8388 21.8043 17.6 22.1111 17.6C22.4179 17.6 22.6667 17.8388 22.6667 18.1333Z" stroke="#1C274C" stroke-linecap="round" stroke-linejoin="round"/>
</svg>
