<svg width="80" height="55" viewBox="0 0 80 55" fill="none" xmlns="http://www.w3.org/2000/svg">
<ellipse cx="40.1246" cy="27.8114" rx="25" ry="12" stroke="white" stroke-dasharray="2 2"/>
<path d="M59.6246 27.8114C59.6246 29.9774 57.6496 32.1048 54.0616 33.7194C50.5205 35.3129 45.5935 36.3114 40.1246 36.3114C34.6557 36.3114 29.7287 35.3129 26.1877 33.7194C22.5997 32.1048 20.6246 29.9774 20.6246 27.8114C20.6246 25.6454 22.5997 23.518 26.1877 21.9034C29.7287 20.3099 34.6557 19.3114 40.1246 19.3114C45.5935 19.3114 50.5205 20.3099 54.0616 21.9034C57.6496 23.518 59.6246 25.6454 59.6246 27.8114Z" stroke="white"/>
<path d="M51.6246 27.8114C51.6246 28.3276 51.3757 28.8646 50.8307 29.4014C50.284 29.94 49.4672 30.4481 48.4176 30.8854C46.3205 31.7592 43.3888 32.3114 40.1246 32.3114C36.8604 32.3114 33.9287 31.7592 31.8317 30.8854C30.782 30.4481 29.9653 29.94 29.4185 29.4014C28.8736 28.8646 28.6246 28.3276 28.6246 27.8114C28.6246 27.2952 28.8736 26.7582 29.4185 26.2214C29.9653 25.6828 30.782 25.1747 31.8317 24.7374C33.9287 23.8636 36.8604 23.3114 40.1246 23.3114C43.3888 23.3114 46.3205 23.8636 48.4176 24.7374C49.4672 25.1747 50.284 25.6828 50.8307 26.2214C51.3757 26.7582 51.6246 27.2952 51.6246 27.8114Z" stroke="white"/>
<g filter="url(#filter0_f_112_836)">
<ellipse cx="40.1247" cy="27.8114" rx="21.6" ry="9" fill="white"/>
</g>
<defs>
<filter id="filter0_f_112_836" x="0.524658" y="0.811401" width="79.2" height="54" filterUnits="userSpaceOnUse" color-interpolation-filters="sRGB">
<feFlood flood-opacity="0" result="BackgroundImageFix"/>
<feBlend mode="normal" in="SourceGraphic" in2="BackgroundImageFix" result="shape"/>
<feGaussianBlur stdDeviation="9" result="effect1_foregroundBlur_112_836"/>
</filter>
</defs>
</svg>
