<svg width="24" height="24" viewBox="0 0 24 24" fill="none" xmlns="http://www.w3.org/2000/svg">
<path d="M14 15H16" stroke="#1C274C" stroke-linecap="round" stroke-linejoin="round"/>
<path d="M4.1 11H20M19 21H5C4.73478 21 4.48043 20.8946 4.29289 20.7071C4.10536 20.5196 4 20.2652 4 20V11.41C4.0011 11.1477 4.10526 10.8963 4.29 10.71L11.71 3.29C11.8963 3.10526 12.1477 3.0011 12.41 3H19C19.2652 3 19.5196 3.10536 19.7071 3.29289C19.8946 3.48043 20 3.73478 20 4V20C20 20.2652 19.8946 20.5196 19.7071 20.7071C19.5196 20.8946 19.2652 21 19 21Z" stroke="#1C274C" stroke-linecap="round" stroke-linejoin="round"/>
</svg>
