<svg width="24" height="24" viewBox="0 0 24 24" fill="none" xmlns="http://www.w3.org/2000/svg">
<path d="M20.4558 9.8802L15.8243 12.0902C15.5912 12.198 15.4085 12.3914 15.3141 12.6302L14.1137 15.7102C14.0412 15.9009 13.912 16.065 13.7436 16.1802L11.0027 18.0002L11.4528 14.1702L7.8216 15.9002C7.61499 15.9959 7.38376 16.0252 7.1598 15.984C6.93584 15.9428 6.73018 15.8332 6.57119 15.6702L3 11.7402L4.8106 10.6102C4.98969 10.4968 5.19843 10.4391 5.41036 10.4444C5.62228 10.4498 5.82785 10.5179 6.001 10.6402L7.30143 11.5402L15.124 6.6502C15.7755 6.22526 16.5368 5.99938 17.3148 6.0002C18.0286 5.99274 18.7293 6.19295 19.3314 6.57646C19.9335 6.95996 20.411 7.51022 20.7059 8.1602L20.936 8.7202C21.0228 8.93798 21.0213 9.18106 20.9316 9.39771C20.8419 9.61436 20.6712 9.78747 20.4558 9.8802Z" stroke="#1C274C" stroke-linecap="round" stroke-linejoin="round"/>
</svg>
