<svg width="32" height="32" viewBox="0 0 32 32" fill="none" xmlns="http://www.w3.org/2000/svg">
<path d="M11.2594 24.5335L16.0001 20.7409L20.7409 24.5335M12.0179 20.7409H19.9824C21.5754 20.7409 22.3719 20.7409 22.9804 20.4308C23.5156 20.1581 23.9507 19.723 24.2234 19.1878C24.5335 18.5793 24.5335 17.7828 24.5335 16.1898V12.0179C24.5335 10.4249 24.5335 9.62835 24.2234 9.01989C23.9507 8.48467 23.5156 8.04953 22.9804 7.77682C22.3719 7.4668 21.5754 7.4668 19.9824 7.4668H12.0179C10.4249 7.4668 9.62835 7.4668 9.01989 7.77682C8.48467 8.04953 8.04953 8.48467 7.77682 9.01989C7.4668 9.62835 7.4668 10.4249 7.4668 12.0179V16.1898C7.4668 17.7828 7.4668 18.5793 7.77682 19.1878C8.04953 19.723 8.48467 20.1581 9.01989 20.4308C9.62835 20.7409 10.4249 20.7409 12.0179 20.7409Z" stroke="#1C274C" stroke-linecap="round" stroke-linejoin="round"/>
</svg>
