<svg width="32" height="32" viewBox="0 0 32 32" fill="none" xmlns="http://www.w3.org/2000/svg">
<path d="M11.7139 18.0778C11.7139 18.0778 12.4282 15.3086 15.9996 15.3086C19.571 15.3086 20.2853 18.0778 20.2853 18.0778" stroke="#1C274C" stroke-linecap="round" stroke-linejoin="round"/>
<path d="M8.85742 15.3081C8.85742 15.3081 10.0479 11.1543 16.0003 11.1543C21.9527 11.1543 23.1431 15.3081 23.1431 15.3081" stroke="#1C274C" stroke-linecap="round" stroke-linejoin="round"/>
<path d="M6 12.5385C6 12.5385 7.66667 7 16 7C24.3333 7 26 12.5385 26 12.5385" stroke="#1C274C" stroke-linecap="round" stroke-linejoin="round"/>
<path d="M15.9997 24.9994C17.5777 24.9994 18.8569 23.7596 18.8569 22.2302C18.8569 20.7008 17.5777 19.4609 15.9997 19.4609C14.4218 19.4609 13.1426 20.7008 13.1426 22.2302C13.1426 23.7596 14.4218 24.9994 15.9997 24.9994Z" stroke="#1C274C" stroke-linejoin="round"/>
</svg>
